<svg version="1.1" xmlns="http://www.w3.org/2000/svg" xmlns:xlink="http://www.w3.org/1999/xlink" width="15.6875" height="13.29646" viewBox="0,0,15.6875,13.29646"><g transform="translate(-233.25,-173.35177)"><g data-paper-data="{&quot;isPaintingLayer&quot;:true}" fill-rule="nonzero" stroke-linecap="butt" stroke-linejoin="miter" stroke-miterlimit="10" stroke-dasharray="" stroke-dashoffset="0" style="mix-blend-mode: normal"><path d="M239.73346,180.07673c0,-0.13807 0.11193,-0.25 0.25,-0.25c0.13807,0 0.25,0.11193 0.25,0.25c0,0.13807 -0.11193,0.25 -0.25,0.25c-0.13807,0 -0.25,-0.11193 -0.25,-0.25z" fill="#9966ff" stroke="none" stroke-width="0.5"/><path d="M245.75,180c0,3.11943 -2.57436,5.64823 -5.75,5.64823c-3.17564,0 -5.75,-2.5288 -5.75,-5.64823c0,-3.11943 2.57436,-5.64823 5.75,-5.64823c3.17564,0 5.75,2.5288 5.75,5.64823z" fill="none" stroke="#000000" stroke-width="2"/><path d="M247.9375,180.125c0,0.48325 -0.50368,0.875 -1.125,0.875c-0.62132,0 -1.125,-0.39175 -1.125,-0.875c0,-0.48325 0.50368,-0.875 1.125,-0.875c0.62132,0 1.125,0.39175 1.125,0.875z" fill="none" stroke="#000000" stroke-width="2"/></g></g></svg>