<svg version="1.1" xmlns="http://www.w3.org/2000/svg" xmlns:xlink="http://www.w3.org/1999/xlink" width="441.24286" height="252.30503" viewBox="0,0,441.24286,252.30503"><g transform="translate(-27.75088,-44.80292)"><g data-paper-data="{&quot;isPaintingLayer&quot;:true}" fill-rule="nonzero" stroke-linejoin="miter" stroke-miterlimit="10" stroke-dasharray="" stroke-dashoffset="0" style="mix-blend-mode: normal"><path d="M167.3211,147.703l87.64857,-68.12858l7.9081,-10.54414l-164.49006,-1.42416l-5.58711,-20.00209l373.05184,-2.29806l2.63603,251.30197h-440.21778l9.66546,-248.66593l27.78223,-0.17114l6.56824,19.60928l-12.38351,-0.10722l-10.54414,178.37168l151.13265,0.87868v19.34176" fill="none" stroke="#000000" stroke-width="1" stroke-linecap="round"/><path d="M63.41782,265.85421l109.83478,0.87868l-0.87868,28.99638" fill="none" stroke="#000000" stroke-width="0.5" stroke-linecap="round"/><path d="M53.75236,235.97915l91.23808,-70.91868" fill="none" stroke="#000000" stroke-width="0.5" stroke-linecap="round"/><path d="M200.49162,293.96107v0.01084" fill="none" stroke="#000000" stroke-width="0.5" stroke-linecap="round"/><path d="M51.11632,198.19599l2.55299,-1.99799" fill="none" stroke="#000000" stroke-width="0.5" stroke-linecap="round"/><path d="M71.83258,181.98327l140.96053,-110.31694" fill="none" stroke="#000000" stroke-width="0.5" stroke-linecap="round"/><path d="M53.75236,151.62604l85.48865,-63.61946" fill="none" stroke="#000000" stroke-width="0.5" stroke-linecap="round"/><path d="M160.03274,72.53367l7.0691,-5.26073" fill="none" stroke="#000000" stroke-width="0.5" stroke-linecap="round"/><path d="M56.38839,99.78403l2.54074,-1.52444" fill="none" stroke="#000000" stroke-width="0.5" stroke-linecap="round"/><path d="M79.95208,85.64582l29.157,-17.4942" fill="none" stroke="#000000" stroke-width="0.5" stroke-linecap="round"/><path d="M207.52105,74.30236l12.30149,-6.15075" fill="none" stroke="#000000" stroke-width="0.5" stroke-linecap="round"/><path d="M167.10185,242.1299v-49.20598l262.72478,-3.51471l-0.87868,64.14351h-162.55547" fill="none" stroke="#000000" stroke-width="0.5" stroke-linecap="round"/><path d="M192.58352,219.28427l31.63242,-0.87868l0.87868,78.20236" fill="none" stroke="#000000" stroke-width="0.5" stroke-linecap="round"/><path d="M224.21593,216.64823l165.1915,-0.87868" fill="none" stroke="#000000" stroke-width="0.5" stroke-linecap="round"/><path d="M389.40743,83.08914l34.26845,17.57356l3.51471,40.4192l-122.13627,-76.445h122.13627" fill="none" stroke="#000000" stroke-width="0.5" stroke-linecap="round"/><path d="M299.78226,47.94202l4.39339,14.93753" fill="none" stroke="#000000" stroke-width="0.5" stroke-linecap="round"/><path d="M165.34449,192.92392l100.16932,-71.17293l11.42282,-39.54052l125.96448,82.71162" fill="none" stroke="#000000" stroke-width="0.5" stroke-linecap="round"/><path d="M122.28926,241.25122v-25.48167" fill="none" stroke="#000000" stroke-width="0.5" stroke-linecap="round"/><path d="M284.84473,140.20323l67.65822,43.93391" fill="none" stroke="#000000" stroke-width="0.5" stroke-linecap="round"/><path d="M361.28973,190.28789l-14.05885,-10.54414" fill="none" stroke="#000000" stroke-width="0.5" stroke-linecap="round"/><path d="" fill="#9966ff" stroke="none" stroke-width="0.5" stroke-linecap="butt"/></g></g></svg>