<svg version="1.1" xmlns="http://www.w3.org/2000/svg" xmlns:xlink="http://www.w3.org/1999/xlink" width="458.42857" height="272" viewBox="0,0,458.42857,272"><g transform="translate(-13.5,-56)"><g data-paper-data="{&quot;isPaintingLayer&quot;:true}" fill="none" fill-rule="nonzero" stroke="#000000" stroke-width="2" stroke-linejoin="miter" stroke-miterlimit="10" stroke-dasharray="" stroke-dashoffset="0" style="mix-blend-mode: normal"><path d="M303.78572,327h-289.28571v-270h456.42857v270h-135" stroke-linecap="butt"/><path d="M228.25,129.32143h-64.28572v28.92857h90l1.60715,-65.89285l-208.92858,-3.21429l27.32143,65.89286l-19.28571,-1.60715l-4.82143,94.82143l356.78571,-1.60715" stroke-linecap="round"/><path d="M104.5,90.75l-1.60715,62.67857" stroke-linecap="round"/><path d="M61.10715,126.10714l14.46429,4.82142" stroke-linecap="round"/><path d="M51.46428,203.25h32.14286" stroke-linecap="round"/><path d="M118.96428,200.03572l-1.60714,40.17857" stroke-linecap="round"/><path d="M172,204.85715l231.42857,1.60714v-59.46428l-30.53571,1.60715v-30.53572l-1.60714,-17.67857h56.25l1.60714,216.96429" stroke-linecap="round"/><path d="M250.75,151.82143l78.75,-1.60715v-11.25l-73.92857,3.21429" stroke-linecap="round"/><path d="M255.57143,105.21428l69.10714,-4.82143l-67.5,-6.42857" stroke-linecap="round"/><path d="M14.5,285.21429h69.10715" stroke-linecap="round"/><path d="M114.14286,285.21429h244.28572" stroke-linecap="round"/><path d="M200.92857,322.17857v-28.92857" stroke-linecap="round"/></g></g></svg>