<svg version="1.1" xmlns="http://www.w3.org/2000/svg" xmlns:xlink="http://www.w3.org/1999/xlink" width="722.24242" height="421.93787" viewBox="0,0,722.24242,421.93787"><g transform="translate(123.35961,29.45571)"><g data-paper-data="{&quot;isPaintingLayer&quot;:true}" fill-rule="nonzero" stroke-linejoin="miter" stroke-miterlimit="10" stroke-dasharray="" stroke-dashoffset="0" style="mix-blend-mode: normal"><path d="M162.75,265.29821v-9.375h65v9.375z" fill="#000000" stroke="none" stroke-width="0" stroke-linecap="butt"/><path d="M248.375,265.92321v-8.75h83.125v8.75z" fill="#000000" stroke="none" stroke-width="0" stroke-linecap="butt"/><path d="M205.875,306.54822v-5h52.5v5z" fill="#000000" stroke="none" stroke-width="0" stroke-linecap="butt"/><path d="M-119.60961,-25.70571l10.51051,414.41441l704.2042,-4.5045l-3.003,-405.40541l-710.21021,4.5045" fill="none" stroke="#000000" stroke-width="7.5" stroke-linecap="round"/><path d="M69.57958,80.9009l-115.61562,1.5015l-1.5015,-70.57057l253.75375,9.00901v196.6967" fill="none" stroke="#000000" stroke-width="7" stroke-linecap="round"/><path d="M153.66366,136.45646l145.64565,1.5015" fill="none" stroke="#000000" stroke-width="7.5" stroke-linecap="round"/><path d="M42.55255,131.95195h64.56456l-4.5045,-114.11411" fill="none" stroke="#000000" stroke-width="7" stroke-linecap="round"/><path d="M-53.54354,190.51051v94.59459l217.71772,3.003l-1.5015,-72.07207" fill="none" stroke="#000000" stroke-width="7" stroke-linecap="round"/><path d="M164.17417,285.10511v55.55556l123.12312,-1.5015" fill="none" stroke="#000000" stroke-width="7" stroke-linecap="round"/><path d="M207.71772,303.12312l51.05105,1.5015" fill="none" stroke="#000000" stroke-width="7" stroke-linecap="round"/><path d="M165.67568,261.08108h60.06006" fill="none" stroke="#000000" stroke-width="7" stroke-linecap="round"/><path d="M251.26126,261.08108l87.08709,-1.5015" fill="none" stroke="#000000" stroke-width="7" stroke-linecap="round"/><path d="M335.34535,163.48348v205.70571" fill="none" stroke="#000000" stroke-width="7" stroke-linecap="round"/><path d="M72.58258,181.5015v159.15916" fill="none" stroke="#000000" stroke-width="7" stroke-linecap="round"/><path d="M2.01201,213.03303h112.61261" fill="none" stroke="#000000" stroke-width="7" stroke-linecap="round"/><path d="M386.3964,252.07207v121.62162" fill="none" stroke="#000000" stroke-width="7" stroke-linecap="round"/><path d="M366.87688,331.65165l43.54354,4.5045" fill="none" stroke="#000000" stroke-width="7" stroke-linecap="round"/><path d="M386.3964,294.11411l58.55856,-1.5015" fill="none" stroke="#000000" stroke-width="7" stroke-linecap="round"/><path d="M488.4985,303.12312v72.07207" fill="none" stroke="#000000" stroke-width="7" stroke-linecap="round"/><path d="M530.54054,119.93994l1.5015,180.18018" fill="none" stroke="#000000" stroke-width="15" stroke-linecap="round"/><path d="M479.48949,189.00901l75.07508,7.50751" fill="none" stroke="#000000" stroke-width="7" stroke-linecap="round"/><path d="M335.34535,97.41742l139.63964,-1.5015" fill="none" stroke="#000000" stroke-width="34.5" stroke-linecap="round"/><path d="M402.91291,56.87688l4.5045,88.58859" fill="none" stroke="#000000" stroke-width="7" stroke-linecap="round"/><path d="M266.27628,26.84685l276.27628,6.00601" fill="none" stroke="#000000" stroke-width="7" stroke-linecap="round"/><path d="M532.04204,29.84985v45.04505" fill="none" stroke="#000000" stroke-width="7" stroke-linecap="round"/></g></g></svg>